TITLE ""
FILE "Step2_Track29.mp3" MP3
  TRACK 01 AUDIO
    TITLE "Step2_Track29_01"
    INDEX 01 00:00:00
  TRACK 02 AUDIO
    TITLE "Step2_Track29_02"
    INDEX 01 00:00:22
  TRACK 03 AUDIO
    TITLE "Step2_Track29_03"
    INDEX 01 00:02:01
  TRACK 04 AUDIO
    TITLE "Step2_Track29_04"
    INDEX 01 00:02:58
  TRACK 05 AUDIO
    TITLE "Step2_Track29_05"
    INDEX 01 00:03:50
  TRACK 06 AUDIO
    TITLE "Step2_Track29_06"
    INDEX 01 00:03:58
  TRACK 07 AUDIO
    TITLE "Step2_Track29_07"
    INDEX 01 00:05:68
  TRACK 08 AUDIO
    TITLE "Step2_Track29_08"
    INDEX 01 00:06:13
  TRACK 09 AUDIO
    TITLE "Step2_Track29_09"
    INDEX 01 00:07:12
  TRACK 10 AUDIO
    TITLE "Step2_Track29_10"
    INDEX 01 00:07:14
  TRACK 11 AUDIO
    TITLE "Step2_Track29_11"
    INDEX 01 00:09:62
  TRACK 12 AUDIO
    TITLE "Step2_Track29_12"
    INDEX 01 00:10:01
  TRACK 13 AUDIO
    TITLE "Step2_Track29_13"
    INDEX 01 00:11:02
  TRACK 14 AUDIO
    TITLE "Step2_Track29_14"
    INDEX 01 00:11:10
  TRACK 15 AUDIO
    TITLE "Step2_Track29_15"
    INDEX 01 00:14:14
  TRACK 16 AUDIO
    TITLE "Step2_Track29_16"
    INDEX 01 00:14:36
  TRACK 17 AUDIO
    TITLE "Step2_Track29_17"
    INDEX 01 00:15:37
  TRACK 18 AUDIO
    TITLE "Step2_Track29_18"
    INDEX 01 00:15:39
  TRACK 19 AUDIO
    TITLE "Step2_Track29_19"
    INDEX 01 00:18:24
  TRACK 20 AUDIO
    TITLE "Step2_Track29_20"
    INDEX 01 00:18:42
  TRACK 21 AUDIO
    TITLE "Step2_Track29_21"
    INDEX 01 00:19:35
  TRACK 22 AUDIO
    TITLE "Step2_Track29_22"
    INDEX 01 00:19:53
  TRACK 23 AUDIO
    TITLE "Step2_Track29_23"
    INDEX 01 00:22:73
  TRACK 24 AUDIO
    TITLE "Step2_Track29_24"
    INDEX 01 00:23:19
  TRACK 25 AUDIO
    TITLE "Step2_Track29_25"
    INDEX 01 00:24:25
  TRACK 26 AUDIO
    TITLE "Step2_Track29_26"
    INDEX 01 00:24:32
  TRACK 27 AUDIO
    TITLE "Step2_Track29_27"
    INDEX 01 00:27:58
  TRACK 28 AUDIO
    TITLE "Step2_Track29_28"
    INDEX 01 00:27:70
  TRACK 29 AUDIO
    TITLE "Step2_Track29_29"
    INDEX 01 00:28:73
  TRACK 30 AUDIO
    TITLE "Step2_Track29_30"
    INDEX 01 00:29:14
  TRACK 31 AUDIO
    TITLE "Step2_Track29_31"
    INDEX 01 00:32:32
  TRACK 32 AUDIO
    TITLE "Step2_Track29_32"
    INDEX 01 00:32:44
  TRACK 33 AUDIO
    TITLE "Step2_Track29_33"
    INDEX 01 00:33:22
  TRACK 34 AUDIO
    TITLE "Step2_Track29_34"
    INDEX 01 00:33:55
  TRACK 35 AUDIO
    TITLE "Step2_Track29_35"
    INDEX 01 00:36:75
  TRACK 36 AUDIO
    TITLE "Step2_Track29_36"
    INDEX 01 00:37:06
  TRACK 37 AUDIO
    TITLE "Step2_Track29_37"
    INDEX 01 00:38:09
  TRACK 38 AUDIO
    TITLE "Step2_Track29_38"
    INDEX 01 00:38:21
  TRACK 39 AUDIO
    TITLE "Step2_Track29_39"
    INDEX 01 00:41:52
  TRACK 40 AUDIO
    TITLE "Step2_Track29_40"
    INDEX 01 00:41:72
  TRACK 41 AUDIO
    TITLE "Step2_Track29_41"
    INDEX 01 00:42:71
  TRACK 42 AUDIO
    TITLE "Step2_Track29_42"
    INDEX 01 00:43:16
  TRACK 43 AUDIO
    TITLE "Step2_Track29_43"
    INDEX 01 00:46:18
